HIERARCHY
ROOT Hips
{
	OFFSET 0.00000 0.00000 0.00000
	CHANNELS 6 Xposition Yposition Zposition Zrotation Yrotation Xrotation 
	JOINT LHipJoint
	{
		OFFSET 0 0 0
		CHANNELS 3 Zrotation Yrotation Xrotation
		JOINT LeftHip
		{
			OFFSET 1.37590 -1.78394 0.89329
			CHANNELS 3 Zrotation Yrotation Xrotation
			JOINT LeftKnee
			{
				OFFSET 2.47928 -6.81178 0.00000
				CHANNELS 3 Zrotation Yrotation Xrotation
				JOINT LeftAnkle
				{
					OFFSET 2.63345 -7.23535 0.00000
					CHANNELS 3 Zrotation Yrotation Xrotation
					JOINT LeftToe
					{
						OFFSET 0.23938 -0.65768 2.27012
						CHANNELS 3 Zrotation Yrotation Xrotation
						End Site
						{
							OFFSET 0.00000 -0.00000 1.18363
						}
					}
				}
			}
		}
	}
	JOINT RHipJoint
	{
		OFFSET 0 0 0
		CHANNELS 3 Zrotation Yrotation Xrotation
		JOINT RightHip
		{
			OFFSET -1.33617 -1.78394 0.89329
			CHANNELS 3 Zrotation Yrotation Xrotation
			JOINT RightKnee
			{
				OFFSET -2.56922 -7.05888 0.00000
				CHANNELS 3 Zrotation Yrotation Xrotation
				JOINT RightAnkle
				{
					OFFSET -2.56568 -7.04915 0.00000
					CHANNELS 3 Zrotation Yrotation Xrotation
					JOINT RightToe
					{
						OFFSET -0.27533 -0.75646 2.18105
						CHANNELS 3 Zrotation Yrotation Xrotation
						End Site
						{
							OFFSET -0.00000 -0.00000 1.15233
						}
					}
				}
			}
		}
	}
	JOINT lowerback
	{
		OFFSET 0 0 0
		CHANNELS 3 Zrotation Yrotation Xrotation
		JOINT Chest
		{
			OFFSET 0.06190 2.15152 -0.00935
			CHANNELS 3 Zrotation Yrotation Xrotation
			JOINT Chest2
			{
				OFFSET 0.06334 2.15332 0.00872
				CHANNELS 3 Zrotation Yrotation Xrotation
				JOINT lowerneck
				{
					OFFSET 0 0 0
					CHANNELS 3 Zrotation Yrotation Xrotation
					JOINT Neck
					{
						OFFSET -0.04202 1.66908 0.23524
						CHANNELS 3 Zrotation Yrotation Xrotation
						JOINT Head
						{
							OFFSET 0.07510 1.69357 -0.24440
							CHANNELS 3 Zrotation Yrotation Xrotation
							End Site
							{
								OFFSET 0.02556 1.71719 -0.11000
							}
						}
					}
				}
				JOINT LeftCollar
				{
					OFFSET 0 0 0
					CHANNELS 3 Zrotation Yrotation Xrotation
					JOINT LeftShoulder
					{
						OFFSET 3.67168 1.26306 -0.41342
CHANNELS 3 Zrotation Xrotation Yrotation
						JOINT LeftElbow
						{
OFFSET 0 -4.685100 -0.000000
CHANNELS 3 Zrotation Xrotation Yrotation
							JOINT LeftWrist
							{
OFFSET 0 -3.396260 -0.000000
CHANNELS 3 Zrotation Xrotation Yrotation
								JOINT lhand
								{
									OFFSET 0 0 0
CHANNELS 3 Zrotation Xrotation Yrotation
									JOINT LFingers
									{
OFFSET 0 -0.486080 -0.000000
CHANNELS 3 Zrotation Xrotation Yrotation
										End Site
										{
OFFSET 0 -0.391890 -0.000000
										}
									}
								}
								JOINT LThumb
								{
OFFSET 0 0.000000 0.000000
CHANNELS 3 Zrotation Xrotation Yrotation
									End Site
									{
OFFSET 0 -0.397870 0.397870
									}
								}
							}
						}
					}
				}
				JOINT RightCollar
				{
					OFFSET 0 0 0
					CHANNELS 3 Zrotation Yrotation Xrotation
					JOINT RightShoulder
					{
						OFFSET -3.04136 1.42992 -0.76390
CHANNELS 3 Zrotation Xrotation Yrotation
						JOINT RightElbow
						{
OFFSET 0 -5.555760 -0.000000
CHANNELS 3 Zrotation Xrotation Yrotation
							JOINT RightWrist
							{
OFFSET 0 -3.327740 -0.000000
CHANNELS 3 Zrotation Xrotation Yrotation
								JOINT rhand
								{
									OFFSET 0 0 0
CHANNELS 3 Zrotation Xrotation Yrotation
									JOINT RFingers
									{
OFFSET 0 -0.507630 -0.000000
CHANNELS 3 Zrotation Xrotation Yrotation
										End Site
										{
OFFSET 0 -0.409260 -0.000000
										}
									}
								}
								JOINT RThumb
								{
OFFSET 0 0.000000 0.000000
CHANNELS 3 Zrotation Xrotation Yrotation
									End Site
									{
OFFSET 0 -0.415510 0.415510
									}
								}
							}
						}
					}
				}
			}
		}
	}
}
MOTION
Frames: 6
Frame Time: 0.008333333333333333
9.921712 17.640744 4.997465 -587.291903 -85.758789 586.229743 0.000000 0.000000 0.000000 -26.650622 -3.824363 -8.728209 2.052147 8.973587 25.713032 0.356432 -7.490874 -11.104004 0.158719 2.566880 7.075129 0.000000 0.000000 0.000000 7.371389 6.475009 -41.615990 -22.738647 -19.818981 98.030686 -0.648264 -4.167178 14.367925 -0.917137 -6.101254 17.078526 -2.195931 -2.014627 0.294497 0.616841 -2.722993 -2.029734 1.917291 -1.321029 -2.115101 -5.202964 -2.183619 -20.269414 5.593106 -2.786786 18.712707 2.407270 -1.066865 9.398669 0.000000 0.000000 0.000000 3.817334 -9.184546 -31.733472 26.294420 -37.497933 9.066301 11.800386 3.184692 -11.067110 0.000000 0.000000 0.000000 -7.125000 0.000000 0.000000 -13.512839 40.900925 -1.394716 0.000000 0.000000 0.000000 -6.545635 16.882428 18.969760 -26.491279 -37.689247 -9.186575 -10.585959 3.815137 8.363140 0.000000 0.000000 0.000000 7.125000 0.000000 0.000000 13.926682 38.134347 2.410391
9.769075 17.678270 4.984756 -595.212843 -86.049745 593.873758 0.000000 0.000000 0.000000 -26.928938 -3.792853 -7.330073 1.926346 8.710427 24.893895 0.345117 -7.695477 -11.009513 0.150197 2.497095 6.881611 0.000000 0.000000 0.000000 6.797525 6.764081 -44.817313 -23.131808 -19.762926 99.191821 -0.618311 -4.631766 14.006468 -1.028035 -6.448304 18.091246 -2.568136 -2.358319 0.747538 0.696509 -3.194937 -1.969859 2.233992 -1.546626 -2.261041 -5.109972 -2.039219 -20.348765 5.447477 -2.579241 18.772847 2.370809 -0.978535 9.417802 0.000000 0.000000 0.000000 4.032464 -11.269878 -31.718087 26.437419 -37.637297 9.153476 11.991088 3.173037 -10.902616 0.000000 0.000000 0.000000 -7.125000 0.000000 0.000000 -13.309068 40.754741 -1.421687 0.000000 0.000000 0.000000 -6.499437 18.055087 17.765290 -25.749488 -36.959367 -8.736985 -10.570322 3.591355 8.420619 0.000000 0.000000 0.000000 7.125000 0.000000 0.000000 13.952195 38.189758 2.395523
9.615925 17.712282 4.970659 -603.653983 -86.329996 602.029180 0.000000 0.000000 0.000000 -27.103526 -3.775968 -5.962777 1.815650 8.470323 24.152361 0.334429 -7.879143 -10.921462 0.139427 2.406349 6.630124 0.000000 0.000000 0.000000 6.282193 7.038902 -47.885137 -23.399694 -19.720418 99.984747 -0.585884 -5.144038 13.629784 -1.147693 -6.800738 19.127038 -2.875898 -2.691292 1.212691 0.801090 -3.654019 -1.895795 2.544649 -1.766638 -2.394995 -5.013886 -1.903537 -20.432541 5.306602 -2.382742 18.785527 2.333549 -0.894227 9.422365 0.000000 0.000000 0.000000 4.254948 -13.282100 -31.668671 26.651056 -37.844218 9.284309 12.137452 3.154915 -10.762208 0.000000 0.000000 0.000000 -7.125000 0.000000 0.000000 -13.149874 40.628213 -1.445878 0.000000 0.000000 0.000000 -6.497911 19.231777 16.673963 -25.120085 -36.325546 -8.361367 -10.503962 3.483301 8.398633 0.000000 0.000000 0.000000 7.125000 0.000000 0.000000 14.002858 38.163464 2.413951
9.461934 17.742967 4.955643 -612.662469 -86.574376 610.776306 0.000000 0.000000 0.000000 -27.204363 -3.796071 -4.654568 1.719312 8.254534 23.490340 0.326002 -8.014706 -10.850679 0.126737 2.294222 6.319553 0.000000 0.000000 0.000000 5.795789 7.318424 -50.845702 -23.550944 -19.694909 100.433275 -0.552897 -5.722757 13.266813 -1.266304 -7.131370 20.105751 -3.125761 -3.006122 1.654568 0.920779 -4.089129 -1.820570 2.840951 -1.975839 -2.512761 -4.920545 -1.779373 -20.512292 5.182570 -2.203638 18.759757 2.299739 -0.816229 9.414597 0.000000 0.000000 0.000000 4.496688 -15.231253 -31.610995 26.913667 -38.096472 9.445913 12.213849 3.104239 -10.667887 0.000000 0.000000 0.000000 -7.125000 0.000000 0.000000 -13.062198 40.541196 -1.464482 0.000000 0.000000 0.000000 -6.529291 20.405778 15.685370 -24.571700 -35.762107 -8.038620 -10.387429 3.551732 8.312458 0.000000 0.000000 0.000000 7.125000 0.000000 0.000000 14.081662 38.070551 2.461244
9.306943 17.770724 4.939986 -622.072389 -86.753789 619.980032 0.000000 0.000000 0.000000 -27.264824 -3.860693 -3.434780 1.635991 8.062279 22.903769 0.320657 -8.093829 -10.804130 0.112467 2.161174 5.951392 0.000000 0.000000 0.000000 5.302555 7.618576 -53.724718 -23.592477 -19.687701 100.556511 -0.520632 -6.383739 12.944377 -1.372048 -7.411908 20.942042 -3.335554 -3.296446 2.042458 1.045911 -4.490760 -1.757672 3.120201 -2.169284 -2.612402 -4.834948 -1.669509 -20.581256 5.082120 -2.047091 18.708008 2.271978 -0.746722 9.397823 0.000000 0.000000 0.000000 4.765288 -17.119343 -31.565728 27.206488 -38.375134 9.627146 12.225554 3.005590 -10.605100 0.000000 0.000000 0.000000 -7.125000 0.000000 0.000000 -13.037491 40.479840 -1.481739 0.000000 0.000000 0.000000 -6.585919 21.574291 14.800518 -24.077859 -35.245697 -7.751737 -10.212202 3.779552 8.181167 0.000000 0.000000 0.000000 7.125000 0.000000 0.000000 14.199563 37.929239 2.533430
9.150831 17.796113 4.923675 -631.435169 -86.846729 629.208917 0.000000 0.000000 0.000000 -27.311242 -3.964184 -2.327812 1.565088 7.894207 22.393342 0.318492 -8.125787 -10.785903 0.096916 2.007013 5.525100 0.000000 0.000000 0.000000 4.773473 7.945856 -56.537917 -23.530526 -19.698478 100.372540 -0.490108 -7.134233 12.688061 -1.455040 -7.624002 21.577994 -3.528526 -3.557325 2.358375 1.169018 -4.852250 -1.715482 3.385389 -2.343241 -2.692967 -4.757232 -1.575170 -20.639667 5.005739 -1.915486 18.643888 2.250345 -0.686825 9.376896 0.000000 0.000000 0.000000 5.065322 -18.950514 -31.545214 27.510035 -38.661015 9.816118 12.207207 2.857540 -10.519644 0.000000 0.000000 0.000000 -7.125000 0.000000 0.000000 -13.033512 40.393463 -1.509547 0.000000 0.000000 0.000000 -6.663363 22.729374 14.029054 -23.619682 -34.758896 -7.488817 -10.037894 4.103479 8.049041 0.000000 0.000000 0.000000 7.125000 0.000000 0.000000 14.316306 37.787471 2.606375
